<?xml version="1.0" standalone="no"?>
<!DOCTYPE svg PUBLIC "-//W3C//DTD SVG 20010904//EN"
 "http://www.w3.org/TR/2001/REC-SVG-20010904/DTD/svg10.dtd">
<svg version="1.0" xmlns="http://www.w3.org/2000/svg"
 width="138.000000pt" height="138.000000pt" viewBox="0 0 138.000000 138.000000"
 preserveAspectRatio="xMidYMid meet">
<metadata>
Created by potrace 1.14, written by Peter Selinger 2001-2017
</metadata>
<g transform="translate(0.000000,138.000000) scale(0.100000,-0.100000)"
fill="#000000" stroke="none">
<path d="M331 1321 c-37 -19 -60 -53 -61 -88 0 -15 -7 -23 -22 -25 -18 -2 -24
-11 -26 -38 -4 -38 -15 -50 -49 -50 -12 0 -28 -6 -36 -14 -12 -12 -9 -37 18
-172 67 -335 65 -318 65 -572 0 -132 3 -247 6 -256 5 -14 10 -14 41 -1 39 17
54 19 51 8 -4 -21 16 -85 29 -90 8 -3 24 3 36 14 44 41 64 46 114 29 63 -22
73 -20 109 13 24 22 34 27 48 19 10 -6 32 -7 49 -4 18 4 47 6 65 6 17 0 41 4
52 10 16 9 28 7 52 -4 42 -22 61 -20 117 8 l48 25 51 -24 c48 -22 52 -23 60
-7 4 9 7 36 7 59 -1 41 0 42 24 36 49 -13 66 -9 65 12 -2 26 -15 108 -19 115
-1 3 -6 27 -9 54 -4 27 -9 52 -11 56 -2 4 -6 17 -8 31 -3 13 -10 51 -16 84 -6
33 -14 71 -17 85 -4 14 -7 142 -8 285 -1 143 -6 266 -10 273 -4 7 -27 12 -52
12 -39 0 -44 3 -44 23 -1 57 -5 58 -260 7 -182 -35 -200 -36 -207 -11 -4 18
-69 61 -91 61 -6 0 -28 11 -48 25 -43 29 -67 31 -113 6z"/>
</g>
</svg>
